HIERARCHY
ROOT ui
{
	 OFFSET 0 0 0
	 CHANNELS 3 XPosition YPosition Z Position
	 EndSite
	 {
	 OFFSET 0 -1 0
	 }
}
ROOT li
{
	 OFFSET 0 0 0
	 CHANNELS 3 XPosition YPosition Z Position
	 EndSite
	 {
	 OFFSET 0 -1 0
	 }
}
ROOT ul
{
	 OFFSET 0 0 0
	 CHANNELS 3 XPosition YPosition Z Position
	 EndSite
	 {
	 OFFSET 0 -1 0
	 }
}
ROOT ll
{
	 OFFSET 0 0 0
	 CHANNELS 3 XPosition YPosition Z Position
	 EndSite
	 {
	 OFFSET 0 -1 0
	 }
}
ROOT tt
{
	 OFFSET 0 0 0
	 CHANNELS 3 XPosition YPosition Z Position
	 EndSite
	 {
	 OFFSET 0 -1 0
	 }
}
ROOT tb
{
	 OFFSET 0 0 0
	 CHANNELS 3 XPosition YPosition Z Position
	 EndSite
	 {
	 OFFSET 0 -1 0
	 }
}
ROOT td
{
	 OFFSET 0 0 0
	 CHANNELS 3 XPosition YPosition Z Position
	 EndSite
	 {
	 OFFSET 0 -1 0
	 }
}
ROOT v
{
	 OFFSET 0 0 0
	 CHANNELS 3 XPosition YPosition Z Position
	 EndSite
	 {
	 OFFSET 0 -1 0
	 }
}
ROOT bn
{
	 OFFSET 0 0 0
	 CHANNELS 3 XPosition YPosition Z Position
	 EndSite
	 {
	 OFFSET 0 -1 0
	 }
}
MOTION
Frames: 24
Frame Time: 0.002
0.00450032377243042	-0.005628634929656982	0		0.4698741455078125	-2.363830810546875	0		-0.9164425048828125	0.28040676879882814	0		-0.7333810424804688	-2.3807421875	0		1.6901903076171876	-0.4109904174804688	0		3.372797119140625	-0.45629733276367185	0		4.51701220703125	-0.4427438659667969	0		5.92387158203125	0.36399932861328127	0		-0.2445046844482422	5.87842822265625	0		
-0.011562854766845702	-0.0033079369068145753	0		0.41487692260742187	-2.358080322265625	0		-0.8425364990234375	0.27973757934570315	0		-0.7374788208007812	-2.384561279296875	0		1.67997998046875	-0.4227118835449219	0		3.376781982421875	-0.45014984130859376	0		4.52405126953125	-0.43161419677734375	0		5.92786767578125	0.3721802978515625	0		-0.2295602264404297	5.88840869140625	0		
0.0013019930124282836	-0.008332151412963867	0		0.4626474304199219	-2.37447900390625	0		-0.9025838012695313	0.28349566650390623	0		-0.7225758056640625	-2.388615478515625	0		1.654982177734375	-0.4153048706054687	0		3.36488134765625	-0.43386492919921876	0		4.51605224609375	-0.4243589782714844	0		5.93186962890625	0.38032138061523435	0		-0.215589599609375	5.8993701171875	0		
-0.0015990639925003052	0.007785934925079346	0		0.41882638549804685	-2.352911865234375	0		-0.8236226806640625	0.28671630859375	0		-0.7205946655273437	-2.38555810546875	0		1.6948983154296875	-0.4166357421875	0		3.38374462890625	-0.43995086669921873	0		4.52797021484375	-0.42535794067382815	0		5.9318017578125	0.3814664306640625	0		-0.22984117126464843	5.88860693359375	0		
-0.00571143388748169	0.0038862149715423585	0		0.44472091674804687	-2.35813330078125	0		-0.89768994140625	0.28756805419921877	0		-0.7335891723632812	-2.38036669921875	0		1.69483251953125	-0.4165650329589844	0		3.392765380859375	-0.4319641723632813	0		4.51998095703125	-0.41817752075195314	0		5.92272998046875	0.381669677734375	0		-0.21584068298339842	5.89950927734375	0		
0.004127745151519775	-0.005194479942321777	0		0.444673828125	-2.35810302734375	0		-0.8337474975585938	0.2878960876464844	0		-0.6887687377929688	-2.3928310546875	0		1.6917293701171876	-0.4204939575195312	0		3.367739501953125	-0.4286440124511719	0		4.53090966796875	-0.41923947143554685	0		5.93166455078125	0.38163864135742187	0		-0.23103915405273437	5.89069775390625	0		
-0.0030026519298553466	-0.012120838165283204	0		0.4426090087890625	-2.360081787109375	0		-0.9028540649414063	0.28363653564453123	0		-0.7278095092773438	-2.3924150390625	0		1.66066748046875	-0.4211524658203125	0		3.3617734375	-0.4205652770996094	0		4.52273779296875	-0.4301321716308594	0		5.9276943359375	0.3897085266113281	0		-0.2641974792480469	5.8840517578125	0		
0.004026697158813476	-0.0052283120155334475	0		0.4374739685058594	-2.369056884765625	0		-0.8978580932617187	0.28754779052734375	0		-0.724825927734375	-2.390481201171875	0		1.6764271240234374	-0.43935015869140626	0		3.402574951171875	-0.43502789306640627	0		4.5267578125	-0.4241916198730469	0		5.94871044921875	0.3954699401855469	0		-0.21312599182128905	5.896466796875	0		
0.01297938060760498	-0.0063829259872436525	0		0.4315730285644531	-2.357049072265625	0		-0.8928516845703125	0.29143429565429685	0		-0.757779296875	-2.38318359375	0		1.6794351806640626	-0.43543670654296873	0		3.362899169921875	-0.40164739990234377	0		4.52672314453125	-0.42423965454101564	0		5.944771484375	0.4044675903320312	0		-0.21614144897460938	5.89944140625	0		
-0.0018942509889602662	0.007699565887451172	0		0.4465591735839844	-2.3562900390625	0		-0.8198822021484375	0.2905648193359375	0		-0.7357935791015625	-2.382501220703125	0		1.676366455078125	-0.4394814453125	0		3.361668212890625	-0.42071133422851564	0		4.5346318359375	-0.430400634765625	0		5.943755859375	0.4054048767089844	0		-0.26533224487304685	5.88489306640625	0		
-0.005954473972320557	0.003647387981414795	0		0.41655477905273436	-2.35506103515625	0		-0.8979381103515625	0.28731307983398435	0		-0.729940673828125	-2.3946611328125	0		1.6721549072265625	-0.45753265380859376	0		3.359791748046875	-0.40778585815429685	0		4.52668017578125	-0.42440969848632815	0		5.93475	0.40640701293945314	0		-0.2312870330810547	5.89042919921875	0		
0.003937541961669922	-0.005568110942840576	0		0.4445099182128906	-2.358471923828125	0		-0.8199093627929688	0.29036148071289064	0		-0.7319729614257813	-2.3967470703125	0		1.65215673828125	-0.4564247131347656	0		3.387715087890625	-0.4141972961425781	0		4.531572265625	-0.43357254028320313	0		5.934740234375	0.40629730224609373	0		-0.21618792724609376	5.90015869140625	0		
-0.009000941276550293	4.563249945640564E-4	0		0.3915841064453125	-2.351014892578125	0		-0.8929091796875	0.2910355224609375	0		-0.765932373046875	-2.3924951171875	0		1.6389801025390625	-0.47239932250976563	0		3.3639501953125	-0.39205548095703124	0		4.527708984375	-0.42064675903320314	0		5.94781103515625	0.41303924560546873	0		-0.2312982177734375	5.89020556640625	0		
-0.0019245239496231078	0.007260540008544922	0		0.4465289916992187	-2.35672900390625	0		-0.8838221435546875	0.298817626953125	0		-0.727932373046875	-2.393026123046875	0		1.6389814453125	-0.47251821899414065	0		3.37883154296875	-0.403335205078125	0		4.53379638671875	-0.4128297424316406	0		5.94390966796875	0.42196502685546877	0		-0.23129977416992187	5.8900859375	0		
0.007983950138092041	-0.001966521978378296	0		0.41857315063476563	-2.353544921875	0		-0.8888591918945312	0.2947511596679688	0		-0.7319652709960938	-2.397103271484375	0		1.6468150634765626	-0.488720703125	0		3.383011474609375	-0.38749359130859373	0		4.52468505859375	-0.4238441467285156	0		5.9439150390625	0.4218548278808594	0		-0.09906146240234374	5.911537109375	0		
-0.005949100971221924	0.0030688669681549073	0		0.471512939453125	-2.361232177734375	0		-0.819895263671875	0.2898870544433594	0		-0.7339680786132813	-2.39919921875	0		1.6668272705078124	-0.48904812622070315	0		3.3639716796875	-0.3923941650390625	0		4.53669775390625	-0.4240770568847656	0		5.94392626953125	0.4217556457519531	0		-0.2332850799560547	5.89187158203125	0		
-0.005931104183197021	0.0029597749710083008	0		0.4145645751953125	-2.3587236328125	0		-0.8837880859375	0.29846633911132814	0		-0.7270714111328125	-2.411385986328125	0		1.6546748046875	-0.5050204162597656	0		3.372958251953125	-0.3955880126953125	0		4.52878271484375	-0.41808334350585935	0		5.9439423828125	0.4216683654785156	0		-0.2663624267578125	5.88511865234375	0		
0.00399571704864502	-0.00624760103225708	0		0.4624229736328125	-2.375339599609375	0		-0.8797216186523438	0.3023195190429688	0		-0.754100341796875	-2.41719677734375	0		1.633713623046875	-0.5038867797851563	0		3.393037353515625	-0.3908907470703125	0		4.52985205078125	-0.4141761169433594	0		5.9480517578125	0.42954861450195314	0		-0.21621292114257812	5.8984765625	0		
0.011103358268737793	5.883569717407227E-4	0		0.42962844848632814	-2.360070068359375	0		-0.8746474609375	0.30617388916015625	0		-0.7130394287109375	-2.41573046875	0		1.6596707763671874	-0.5112489929199219	0		3.36524560546875	-0.37466427612304687	0		4.53597216796875	-0.40631207275390624	0		5.94808251953125	0.42948336791992187	0		-0.23228858947753905	5.89056103515625	0		
0.004068750858306885	-0.006408909797668457	0		0.45359976196289065	-2.36740087890625	0		-0.8796507568359375	0.3021519470214844	0		-0.7210877075195312	-2.42471923828125	0		1.644659912109375	-0.5161546020507812	0		3.342180908203125	-0.38447760009765625	0		4.524025390625	-0.4052409973144531	0		5.94812158203125	0.4294295349121094	0		-0.24737440490722656	5.8806494140625	0		
0.008159289360046387	-0.0025072009563446044	0		0.42263327026367187	-2.369119873046875	0		-0.8845496826171875	0.30714862060546877	0		-0.7250772094726563	-2.428732421875	0		1.66773974609375	-0.5134539794921875	0		3.3612822265625	-0.3797297973632813	0		4.5299765625	-0.4143491516113281	0		5.9391796875	0.4304862060546875	0		-0.28139312744140627	5.87596142578125	0		
-0.008766241073608398	-3.5575199127197267E-4	0		0.43872030639648435	-2.366323974609375	0		-0.8795525512695312	0.3020616149902344	0		-0.7680621948242188	-2.43230126953125	0		1.6356431884765625	-0.5271370849609375	0		3.377333740234375	-0.37992922973632814	0		4.52515869140625	-0.40232077026367186	0		5.94821923828125	0.4293663940429687	0		-0.26724322509765625	5.88577734375	0		
-0.005681075096130371	0.002607774019241333	0		0.42962518310546877	-2.3802294921875	0		-0.8744569702148437	0.3060025634765625	0		-0.7132257080078125	-2.4528984375	0		1.6326536865234376	-0.5311066284179687	0		3.3655498046875	-0.3648009033203125	0		4.52927685546875	-0.3963634033203125	0		5.956271484375	0.4292824401855469	0		-0.267196533203125	5.88577294921875	0		
-0.0015867170095443725	0.006593646049499512	0		0.451797119140625	-2.369437744140625	0		-0.870363037109375	0.3099873046875	0		-0.7491474609375	-2.450481689453125	0		1.6757249755859376	-0.5295394287109375	0		3.359580322265625	-0.3667024230957031	0		4.52730712890625	-0.3983065795898437	0		5.952419921875	0.4383620910644531	0		-0.09886032104492187	5.9119873046875	0		
